<?xml version="1.0" encoding="iso-8859-1"?>
<!-- Generator: Adobe Illustrator 16.0.4, SVG Export Plug-In . SVG Version: 6.00 Build 0)  -->
<!DOCTYPE svg PUBLIC "-//W3C//DTD SVG 1.1//EN" "http://www.w3.org/Graphics/SVG/1.1/DTD/svg11.dtd">
<svg version="1.1" xmlns="http://www.w3.org/2000/svg" xmlns:xlink="http://www.w3.org/1999/xlink" x="0px" y="0px"
	 width="226.772px" height="226.772px" viewBox="0 0 226.772 226.772" style="enable-background:new 0 0 226.772 226.772;"
	 xml:space="preserve">
<g id="Layer_1">
	<g>
		<g style="display:none;">
			<path style="display:inline;fill:#D53F32;" d="M479.489-283.678H340.932c-9.565,0-17.32-7.754-17.32-17.32v-138.557
				c0-9.565,7.754-17.319,17.32-17.319h138.557c9.565,0,17.319,7.754,17.319,17.319v138.557
				C496.808-291.432,489.054-283.678,479.489-283.678z"/>
			<path style="display:inline;fill:#C52F2D;" d="M479.489-456.874H410.21v173.196h69.278c9.565,0,17.319-7.754,17.319-17.319
				v-138.557C496.808-449.12,489.054-456.874,479.489-456.874z"/>
			<g style="display:inline;">
				<circle style="fill:#FFFFFF;" cx="441.22" cy="-401.286" r="19.035"/>
				<circle style="fill:#FFFFFF;" cx="379.2" cy="-339.265" r="19.035"/>
			</g>
			<g style="display:inline;">
				<circle style="fill:#FFFFFF;" cx="441.22" cy="-339.265" r="19.035"/>
				<circle style="fill:#FFFFFF;" cx="379.2" cy="-401.286" r="19.035"/>
			</g>
		</g>
		<g style="display:none;">
			<rect x="633.731" y="-444.949" style="display:inline;fill:#6D7A89;" width="13.033" height="143.899"/>
			<rect x="666.726" y="-444.949" style="display:inline;fill:#6D7A89;" width="13.033" height="143.899"/>
			<rect x="699.718" y="-444.949" style="display:inline;fill:#6D7A89;" width="13.035" height="143.899"/>
			<rect x="732.712" y="-444.949" style="display:inline;fill:#6D7A89;" width="13.035" height="143.899"/>
			<rect x="765.706" y="-444.949" style="display:inline;fill:#6D7A89;" width="13.035" height="143.899"/>
			<path style="display:inline;fill:#ADBACA;" d="M788.046-433.025H625.241c-2.869,0-5.195-2.327-5.195-5.196v-13.457
				c0-2.87,2.326-5.196,5.195-5.196h162.805c2.869,0,5.195,2.326,5.195,5.196v13.457
				C793.241-435.352,790.915-433.025,788.046-433.025z"/>
			<path style="display:inline;fill:#ADBACA;" d="M788.046-283.678H625.241c-2.869,0-5.195-2.326-5.195-5.196v-13.457
				c0-2.87,2.326-5.196,5.195-5.196h162.805c2.869,0,5.195,2.326,5.195,5.196v13.457
				C793.241-286.004,790.915-283.678,788.046-283.678z"/>
			<path style="display:inline;fill:#9EAABA;" d="M788.046-456.874h-81.811v23.849h81.811c2.869,0,5.195-2.327,5.195-5.196v-13.457
				C793.241-454.547,790.915-456.874,788.046-456.874z"/>
			<path style="display:inline;fill:#9EAABA;" d="M788.046-307.526h-81.811v23.849h81.811c2.869,0,5.195-2.326,5.195-5.196v-13.457
				C793.241-305.2,790.915-307.526,788.046-307.526z"/>
		</g>
		<g style="display:none;">
			<g style="display:inline;">
				<rect x="28.583" y="-457.074" style="fill:#F17A70;" width="173.196" height="98.573"/>
				<rect x="37.198" y="-446.26" style="fill:#E44E42;" width="155.967" height="76.944"/>
				<rect x="115.181" y="-457.074" style="fill:#F06C61;" width="86.598" height="98.573"/>
				<rect x="115.181" y="-446.26" style="fill:#D53F32;" width="77.983" height="76.944"/>
				<g>
					<path style="fill:#FFFFFF;" d="M112.424-382.451v-6.009c-3.902-0.125-7.805-1.24-10.035-2.726l1.672-5.823
						c2.416,1.424,5.885,2.726,9.664,2.726c3.903,0,6.567-1.92,6.567-4.894c0-2.788-2.168-4.584-6.752-6.256
						c-6.504-2.355-10.717-5.328-10.717-11.089c0-5.327,3.717-9.416,9.974-10.531v-6.07h5.08v5.761
						c3.903,0.125,6.566,1.054,8.549,2.044l-1.673,5.7c-1.486-0.682-4.212-2.106-8.424-2.106c-4.337,0-5.886,2.23-5.886,4.336
						c0,2.54,2.23,3.964,7.496,6.071c6.938,2.602,10.036,5.947,10.036,11.46c0,5.266-3.655,9.911-10.469,11.026v6.381H112.424z"/>
				</g>
			</g>
			<g style="display:inline;">
				<rect x="28.583" y="-419.562" style="fill:#4BC2EE;" width="173.196" height="98.573"/>
				<rect x="37.198" y="-408.748" style="fill:#46A4D9;" width="155.967" height="76.944"/>
				<rect x="115.181" y="-419.562" style="fill:#4FB0E1;" width="86.598" height="98.573"/>
				<rect x="115.181" y="-408.748" style="fill:#3596D0;" width="77.983" height="76.944"/>
				<g>
					<path style="fill:#FFFFFF;" d="M112.424-344.939v-6.009c-3.902-0.125-7.805-1.24-10.035-2.726l1.672-5.824
						c2.416,1.425,5.885,2.726,9.664,2.726c3.903,0,6.567-1.92,6.567-4.894c0-2.788-2.168-4.583-6.752-6.256
						c-6.504-2.355-10.717-5.328-10.717-11.09c0-5.326,3.717-9.416,9.974-10.531v-6.07h5.08v5.761
						c3.903,0.125,6.566,1.053,8.549,2.044l-1.673,5.7c-1.486-0.682-4.212-2.107-8.424-2.107c-4.337,0-5.886,2.23-5.886,4.336
						c0,2.54,2.23,3.965,7.496,6.072c6.938,2.602,10.036,5.947,10.036,11.459c0,5.266-3.655,9.912-10.469,11.027v6.381H112.424z"/>
				</g>
			</g>
			<g style="display:inline;">
				<rect x="28.583" y="-382.05" style="fill:#8EC549;" width="173.196" height="98.573"/>
				<rect x="37.198" y="-371.235" style="fill:#3FB34F;" width="155.967" height="76.944"/>
				<rect x="115.181" y="-382.05" style="fill:#7BB747;" width="86.598" height="98.573"/>
				<rect x="115.181" y="-371.235" style="fill:#1DA74C;" width="77.983" height="76.944"/>
				<g>
					<path style="fill:#FFFFFF;" d="M112.424-307.427v-6.008c-3.902-0.125-7.805-1.24-10.035-2.726l1.672-5.824
						c2.416,1.425,5.885,2.726,9.664,2.726c3.903,0,6.567-1.92,6.567-4.894c0-2.788-2.168-4.584-6.752-6.257
						c-6.504-2.354-10.717-5.328-10.717-11.089c0-5.327,3.717-9.416,9.974-10.531v-6.07h5.08v5.761
						c3.903,0.125,6.566,1.053,8.549,2.044l-1.673,5.7c-1.486-0.682-4.212-2.107-8.424-2.107c-4.337,0-5.886,2.23-5.886,4.336
						c0,2.54,2.23,3.965,7.496,6.072c6.938,2.602,10.036,5.947,10.036,11.46c0,5.266-3.655,9.911-10.469,11.026v6.381H112.424z"/>
				</g>
			</g>
		</g>
		<g style="display:none;">
			<g style="display:inline;">
				<path style="fill:#D53F32;" d="M481.408,95.038c-3.146-24.148-23.78-42.801-48.786-42.801h-39.721
					c-8.317,0-15.624,5.52-17.898,13.52l-8.316,29.25H339.62c-8.841,0-16.008,7.167-16.008,16.008v33.208h173.196v-33.208
					C496.808,102.378,489.965,95.359,481.408,95.038z"/>
				<path style="fill:#C52F2D;" d="M481.408,95.038c-3.146-24.148-23.78-42.801-48.786-42.801h-19.56v91.985h83.746v-33.208
					C496.808,102.378,489.965,95.359,481.408,95.038z"/>
				<g>
					<g>
						<path style="fill:#5ACAEE;" d="M410.21,56.443h-14.5c-7.55,0-14.183,5.01-16.247,12.271L371.93,95.21h38.28V56.443z"/>
						<path style="fill:#5ACAEE;" d="M431.766,56.443h-16.261V95.21h30.55V58.78C441.569,57.266,436.764,56.443,431.766,56.443z"/>
					</g>
					<path style="fill:#5ACAEE;" d="M451.351,95.21h24.688c-1.996-15.098-11.525-27.815-24.688-34.251V95.21z"/>
				</g>
				<ellipse style="fill:#F6BD46;" cx="332.939" cy="117.674" rx="3.215" ry="8.697"/>
				<g>
					<g>
						<circle style="fill:#30302F;" cx="366.618" cy="144.222" r="22.943"/>
						<circle style="fill:#E0E0E0;" cx="366.618" cy="144.222" r="12.664"/>
					</g>
					<g>
						<circle style="fill:#30302F;" cx="453.803" cy="144.222" r="22.943"/>
						<circle style="fill:#E0E0E0;" cx="453.803" cy="144.222" r="12.664"/>
					</g>
				</g>
			</g>
			<g style="display:inline;">
				<path style="fill:#30302F;" d="M377.114,23.267h12.87v3.343h-8.8v6.152h8.205v3.343h-8.205v9.461h-4.069V23.267z"/>
				<path style="fill:#30302F;" d="M393.962,23.566c1.522-0.264,3.805-0.463,6.154-0.463c3.208,0,5.392,0.53,6.881,1.785
					c1.223,1.026,1.918,2.581,1.918,4.467c0,2.88-1.951,4.83-4.035,5.592v0.1c1.588,0.596,2.547,2.149,3.109,4.3
					c0.695,2.779,1.29,5.36,1.753,6.22h-4.201c-0.332-0.663-0.861-2.481-1.49-5.261c-0.627-2.909-1.687-3.836-4.003-3.903h-2.05
					v9.164h-4.037V23.566z M397.999,33.425h2.415c2.745,0,4.466-1.458,4.466-3.672c0-2.448-1.721-3.574-4.368-3.574
					c-1.291,0-2.117,0.1-2.513,0.199V33.425z"/>
				<path style="fill:#30302F;" d="M425.267,35.674h-8.403v6.551h9.396v3.341h-13.464V23.267h12.967v3.343h-8.898v5.757h8.403
					V35.674z"/>
				<path style="fill:#30302F;" d="M442.314,35.674h-8.403v6.551h9.396v3.341h-13.465V23.267h12.968v3.343h-8.899v5.757h8.403
					V35.674z"/>
			</g>
			<g style="display:inline;">
				<path style="fill:#30302F;" d="M348.07,174.067c1.456-0.264,3.473-0.463,6.22-0.463c2.977,0,5.16,0.628,6.583,1.818
					c1.322,1.094,2.183,2.848,2.183,4.93c0,2.117-0.662,3.871-1.919,5.062c-1.62,1.621-4.168,2.384-7.047,2.384
					c-0.761,0-1.455-0.035-1.984-0.132v8.401h-4.036V174.067z M352.106,184.455c0.496,0.132,1.157,0.167,1.984,0.167
					c3.044,0,4.897-1.49,4.897-4.103c0-2.481-1.721-3.807-4.534-3.807c-1.125,0-1.918,0.1-2.348,0.199V184.455z"/>
				<path style="fill:#30302F;" d="M368.688,189.748l-1.919,6.319h-4.201l7.145-22.299h5.195l7.245,22.299h-4.367l-2.019-6.319
					H368.688z M375.073,186.671l-1.752-5.492c-0.431-1.355-0.795-2.877-1.126-4.167h-0.066c-0.33,1.29-0.661,2.844-1.059,4.167
					l-1.72,5.492H375.073z"/>
				<path style="fill:#30302F;" d="M385.274,174.067c1.522-0.264,3.805-0.463,6.154-0.463c3.208,0,5.392,0.531,6.881,1.786
					c1.223,1.026,1.918,2.58,1.918,4.466c0,2.88-1.952,4.83-4.035,5.593v0.1c1.588,0.595,2.547,2.149,3.108,4.299
					c0.695,2.78,1.29,5.36,1.753,6.22h-4.201c-0.332-0.662-0.861-2.48-1.49-5.261c-0.627-2.909-1.686-3.836-4.003-3.903h-2.05v9.164
					h-4.037V174.067z M389.311,183.926h2.415c2.745,0,4.466-1.457,4.466-3.672c0-2.448-1.722-3.574-4.368-3.574
					c-1.29,0-2.117,0.1-2.513,0.199V183.926z"/>
				<path style="fill:#30302F;" d="M404.108,173.768h4.037v10.258h0.098c0.529-0.861,1.092-1.653,1.622-2.416l5.822-7.842h5.028
					l-7.675,9.496l8.172,12.803h-4.764l-6.319-10.223l-1.984,2.381v7.842h-4.037V173.768z"/>
				<path style="fill:#30302F;" d="M427.442,173.768v22.299h-4.069v-22.299H427.442z"/>
				<path style="fill:#30302F;" d="M432.11,196.067v-22.299h4.632l5.757,9.562c1.488,2.481,2.778,5.062,3.803,7.476h0.066
					c-0.264-2.977-0.363-5.854-0.363-9.261v-7.777h3.771v22.299h-4.2l-5.823-9.791c-1.422-2.449-2.911-5.194-4.003-7.71l-0.1,0.035
					c0.166,2.877,0.198,5.821,0.198,9.492v7.974H432.11z"/>
				<path style="fill:#30302F;" d="M472.351,195.041c-1.423,0.531-4.202,1.258-7.179,1.258c-3.772,0-6.617-0.958-8.734-2.977
					c-1.985-1.885-3.142-4.829-3.109-8.205c0-7.046,5.029-11.58,12.405-11.58c2.746,0,4.896,0.563,5.923,1.059l-0.894,3.275
					c-1.224-0.527-2.712-0.959-5.062-0.959c-4.764,0-8.105,2.812-8.105,8.006c0,5.062,3.11,8.073,7.74,8.073
					c1.456,0,2.549-0.199,3.078-0.463v-5.558h-3.937v-3.211h7.873V195.041z"/>
			</g>
		</g>
		<g style="display:none;">
			<g style="display:inline;">
				<path style="fill:#3FB34F;" d="M430.617-191.219v-15.679c0-1.413-1.146-2.559-2.559-2.559h-7.747
					c-1.413,0-2.559,1.146-2.559,2.559v7.168l-25.931-17.155c-3.079,0-5.392,0-8.472,0l-57.444,38.004
					c-1.432,0.947-2.294,2.551-2.294,4.268v6.096c0,2.827,2.292,5.118,5.118,5.118h4.54c1.413,0,2.559,1.146,2.559,2.559v51.179
					c0,2.826,2.291,5.117,5.118,5.117h93.278c2.826,0,5.118-2.291,5.118-5.117v-51.179c0-1.413,1.146-2.559,2.559-2.559h4.54
					c2.826,0,5.118-2.292,5.118-5.118v-6.096c0-1.717-0.862-3.321-2.294-4.268L430.617-191.219z"/>
				<path style="fill:#1DA74C;" d="M439.343-109.662v-51.179c0-1.413,1.146-2.559,2.559-2.559h4.54c2.826,0,5.118-2.292,5.118-5.118
					v-6.096c0-1.717-0.862-3.321-2.294-4.268l-18.649-12.338v-15.679c0-1.413-1.146-2.559-2.559-2.559h-7.747
					c-1.413,0-2.559,1.146-2.559,2.559v7.168l-24.004-15.881c-1.256-0.831-2.729-1.274-4.236-1.274h-1.926v112.341h46.639
					C437.051-104.544,439.343-106.835,439.343-109.662z"/>
			</g>
			<g style="display:inline;">
				<path style="fill:#D53F32;" d="M475.866-130.365v-15.679c0-1.413-1.146-2.559-2.56-2.559h-7.746
					c-1.413,0-2.559,1.146-2.559,2.559v7.168l-25.931-17.155c-3.08,0-5.393,0-8.472,0l-57.444,38.004
					c-1.433,0.947-2.294,2.551-2.294,4.268v6.096c0,2.827,2.292,5.118,5.118,5.118h4.54c1.413,0,2.559,1.146,2.559,2.56v51.179
					c0,2.826,2.292,5.118,5.118,5.118h93.278c2.826,0,5.118-2.292,5.118-5.118v-51.179c0-1.414,1.146-2.56,2.559-2.56h4.54
					c2.826,0,5.117-2.291,5.117-5.118v-6.096c0-1.717-0.861-3.32-2.294-4.268L475.866-130.365z"/>
				<path style="fill:#C52F2D;" d="M484.592-48.807v-51.179c0-1.414,1.146-2.56,2.559-2.56h4.54c2.826,0,5.117-2.291,5.117-5.118
					v-6.096c0-1.717-0.861-3.32-2.294-4.268l-18.648-12.338v-15.679c0-1.413-1.146-2.559-2.56-2.559h-7.746
					c-1.413,0-2.559,1.146-2.559,2.559v7.168l-24.005-15.882c-1.256-0.83-2.729-1.273-4.235-1.273h-1.927v112.342h46.64
					C482.3-43.689,484.592-45.981,484.592-48.807z"/>
			</g>
		</g>
	</g>
</g>
<g id="Layer_5">
	<g>
		<g>
			<rect x="35.453" y="109.431" style="fill:#CC9C7D;" width="147.855" height="61.734"/>
			<path style="fill:#D3A284;" d="M183.309,56.236H47.171c-6.472,0-11.718,5.246-11.718,11.718v41.478h147.855V56.236z"/>
			<g>
				<rect x="49.617" y="56.236" style="fill:#F6BD46;" width="16.664" height="114.93"/>
				<rect x="140.881" y="56.236" style="fill:#F6BD46;" width="16.664" height="114.93"/>
			</g>
			<path style="fill:#BC8B6D;" d="M183.309,56.236L183.309,56.236c-6.407,0-11.601,5.194-11.601,11.601v103.329h23.201V67.836
				C194.909,61.43,189.715,56.236,183.309,56.236z"/>
			<path style="fill:#8D99A9;" d="M154.663,124.006h-10.9c-3.01,0-5.45,2.44-5.45,5.45v10.9c0,3.01,2.44,5.45,5.45,5.45h10.9
				c3.01,0,5.45-2.44,5.45-5.45v-10.9C160.113,126.447,157.673,124.006,154.663,124.006z M156.025,138.313
				c0,1.882-1.525,3.406-3.406,3.406h-6.813c-1.881,0-3.406-1.524-3.406-3.406V131.5c0-1.881,1.525-3.406,3.406-3.406h6.813
				c1.881,0,3.406,1.525,3.406,3.406V138.313z"/>
			<path style="fill:#8D99A9;" d="M63.398,124.006h-10.9c-3.01,0-5.45,2.44-5.45,5.45v10.9c0,3.01,2.44,5.45,5.45,5.45h10.9
				c3.01,0,5.45-2.44,5.45-5.45v-10.9C68.849,126.447,66.409,124.006,63.398,124.006z M64.761,138.313
				c0,1.882-1.525,3.406-3.406,3.406h-6.813c-1.881,0-3.406-1.524-3.406-3.406V131.5c0-1.881,1.525-3.406,3.406-3.406h6.813
				c1.881,0,3.406,1.525,3.406,3.406V138.313z"/>
		</g>
		<g>
			<path style="fill:#30302F;" d="M41.455,48.565c-0.937,0.486-3.002,0.97-5.616,0.97c-6.908,0-11.103-4.325-11.103-10.942
				c0-7.164,4.971-11.489,11.62-11.489c2.613,0,4.486,0.549,5.292,0.97l-0.871,3.161c-1.033-0.452-2.453-0.839-4.26-0.839
				c-4.423,0-7.617,2.775-7.617,8.005c0,4.775,2.808,7.842,7.584,7.842c1.614,0,3.292-0.323,4.325-0.807L41.455,48.565z"/>
			<path style="fill:#30302F;" d="M63.314,38.109c0,7.295-4.421,11.457-10.424,11.457c-6.132,0-10.006-4.68-10.006-11.068
				c0-6.683,4.196-11.395,10.328-11.395C59.571,27.103,63.314,31.912,63.314,38.109z M47.081,38.432
				c0,4.422,2.227,7.938,6.036,7.938c3.841,0,6.002-3.55,6.002-8.1c0-4.1-2.033-7.973-6.002-7.973
				C49.179,30.298,47.081,33.946,47.081,38.432z"/>
			<path style="fill:#30302F;" d="M85.112,40.337c-0.129-2.81-0.291-6.197-0.259-9.135h-0.096c-0.71,2.646-1.613,5.584-2.582,8.327
				l-3.163,9.424h-3.066l-2.904-9.295c-0.839-2.774-1.615-5.744-2.195-8.456h-0.064c-0.096,2.841-0.226,6.294-0.388,9.263
				l-0.483,8.746h-3.712l1.453-21.754h5.228l2.84,8.748c0.775,2.549,1.453,5.13,2.001,7.551h0.097
				c0.581-2.355,1.323-5.033,2.163-7.585l3.001-8.714h5.164l1.259,21.754h-3.874L85.112,40.337z"/>
			<path style="fill:#30302F;" d="M111.818,40.337c-0.128-2.81-0.29-6.197-0.257-9.135h-0.097c-0.711,2.646-1.614,5.584-2.582,8.327
				l-3.163,9.424h-3.067l-2.904-9.295c-0.84-2.774-1.614-5.744-2.196-8.456h-0.064c-0.096,2.841-0.226,6.294-0.386,9.263
				l-0.485,8.746h-3.712l1.453-21.754h5.229l2.839,8.748c0.775,2.549,1.454,5.13,2.001,7.551h0.097
				c0.581-2.355,1.323-5.033,2.163-7.585l3.001-8.714h5.164l1.259,21.754h-3.874L111.818,40.337z"/>
			<path style="fill:#30302F;" d="M124.097,27.458v12.685c0,4.261,1.775,6.229,4.453,6.229c2.872,0,4.583-1.968,4.583-6.229V27.458
				h3.969v12.428c0,6.711-3.453,9.681-8.681,9.681c-5.035,0-8.295-2.807-8.295-9.649V27.458H124.097z"/>
			<path style="fill:#30302F;" d="M141.665,49.211V27.458h4.519l5.616,9.329c1.452,2.42,2.711,4.938,3.711,7.292h0.064
				c-0.257-2.903-0.354-5.71-0.354-9.034v-7.587h3.679v21.754H154.8l-5.68-9.553c-1.388-2.389-2.841-5.066-3.905-7.521l-0.098,0.034
				c0.162,2.807,0.193,5.679,0.193,9.261v7.778H141.665z"/>
			<path style="fill:#30302F;" d="M167.463,27.458v21.754h-3.97V27.458H167.463z"/>
			<path style="fill:#30302F;" d="M176.181,30.782h-6.196v-3.324h16.428v3.324h-6.261v18.43h-3.971V30.782z"/>
			<path style="fill:#30302F;" d="M194.427,49.211v-9.069l-6.875-12.685h4.519l2.614,5.584c0.742,1.614,1.292,2.841,1.873,4.326
				h0.064c0.549-1.388,1.161-2.744,1.904-4.326l2.615-5.584h4.486l-7.229,12.588v9.166H194.427z"/>
		</g>
		<g>
			<path style="fill:#30302F;" d="M87.06,199.328c-0.938,0.487-3.006,0.971-5.624,0.971c-6.917,0-11.119-4.331-11.119-10.958
				c0-7.174,4.978-11.505,11.636-11.505c2.617,0,4.492,0.55,5.3,0.971l-0.872,3.166c-1.034-0.452-2.457-0.84-4.266-0.84
				c-4.429,0-7.628,2.779-7.628,8.017c0,4.781,2.812,7.853,7.595,7.853c1.616,0,3.296-0.324,4.33-0.808L87.06,199.328z"/>
			<path style="fill:#30302F;" d="M94.439,178.191v8.726h9.21v-8.726h3.977v21.784h-3.977v-9.601h-9.21v9.601h-3.975v-21.784H94.439
				z"/>
			<path style="fill:#30302F;" d="M124.378,190.312h-8.209v6.399h9.179v3.264h-13.154v-21.784h12.668v3.266h-8.693v5.624h8.209
				V190.312z"/>
			<path style="fill:#30302F;" d="M128.75,195.643c1.293,0.745,3.231,1.39,5.269,1.39c2.552,0,3.975-1.194,3.975-2.971
				c0-1.65-1.099-2.618-3.877-3.621c-3.588-1.292-5.883-3.2-5.883-6.335c0-3.555,2.974-6.271,7.692-6.271
				c2.359,0,4.105,0.519,5.236,1.1l-0.97,3.2c-0.775-0.421-2.295-1.034-4.331-1.034c-2.521,0-3.62,1.358-3.62,2.618
				c0,1.68,1.261,2.455,4.17,3.587c3.78,1.421,5.622,3.329,5.622,6.464c0,3.489-2.65,6.528-8.273,6.528
				c-2.293,0-4.686-0.647-5.882-1.357L128.75,195.643z"/>
			<path style="fill:#30302F;" d="M149.8,181.52h-6.206v-3.329h16.45v3.329h-6.27v18.455H149.8V181.52z"/>
		</g>
	</g>
</g>
<g id="Layer_3">
	<g style="display:none;">
		<g style="display:inline;">
			<g>
				<path style="fill:#30302F;" d="M62.33,40.329h-8.198v6.391h9.166v3.259H50.163V28.225h12.65v3.261h-8.682v5.616h8.198V40.329z"
					/>
				<path style="fill:#30302F;" d="M66.793,28.225h3.97v18.429h8.94v3.325h-12.91V28.225z"/>
				<path style="fill:#30302F;" d="M94.88,40.329h-8.198v6.391h9.166v3.259H82.712V28.225h12.651v3.261h-8.682v5.616h8.198V40.329z"
					/>
				<path style="fill:#30302F;" d="M114.932,49.332c-0.937,0.486-3.002,0.97-5.615,0.97c-6.908,0-11.104-4.326-11.104-10.943
					c0-7.164,4.971-11.489,11.619-11.489c2.614,0,4.486,0.549,5.293,0.97L114.254,32c-1.033-0.452-2.453-0.838-4.26-0.838
					c-4.422,0-7.617,2.775-7.617,8.005c0,4.774,2.808,7.841,7.584,7.841c1.614,0,3.292-0.323,4.324-0.807L114.932,49.332z"/>
				<path style="fill:#30302F;" d="M123.141,31.549h-6.197v-3.324h16.428v3.324h-6.262v18.43h-3.969V31.549z"/>
				<path style="fill:#30302F;" d="M135.929,28.516c1.485-0.258,3.712-0.452,6.004-0.452c3.13,0,5.26,0.518,6.713,1.743
					c1.193,1.001,1.871,2.517,1.871,4.357c0,2.809-1.904,4.712-3.937,5.456v0.097c1.549,0.581,2.484,2.097,3.032,4.194
					c0.679,2.712,1.259,5.229,1.711,6.068h-4.098c-0.323-0.646-0.84-2.42-1.454-5.132c-0.612-2.838-1.645-3.742-3.904-3.808h-2v8.94
					h-3.938V28.516z M139.867,38.134h2.355c2.678,0,4.357-1.421,4.357-3.582c0-2.389-1.68-3.487-4.262-3.487
					c-1.259,0-2.065,0.098-2.451,0.195V38.134z"/>
				<path style="fill:#30302F;" d="M158.273,28.225v21.754h-3.97V28.225H158.273z"/>
				<path style="fill:#30302F;" d="M178.416,49.332c-0.937,0.486-3.003,0.97-5.616,0.97c-6.907,0-11.103-4.326-11.103-10.943
					c0-7.164,4.971-11.489,11.619-11.489c2.613,0,4.486,0.549,5.293,0.97L177.738,32c-1.033-0.452-2.453-0.838-4.26-0.838
					c-4.423,0-7.617,2.775-7.617,8.005c0,4.774,2.808,7.841,7.584,7.841c1.613,0,3.292-0.323,4.324-0.807L178.416,49.332z"/>
			</g>
			<g>
				<path style="fill:#30302F;" d="M59.825,200.859c-0.938,0.485-3.003,0.97-5.616,0.97c-6.907,0-11.104-4.326-11.104-10.943
					c0-7.163,4.972-11.489,11.62-11.489c2.613,0,4.485,0.55,5.292,0.97l-0.871,3.162c-1.032-0.452-2.453-0.839-4.26-0.839
					c-4.423,0-7.617,2.775-7.617,8.005c0,4.775,2.809,7.842,7.585,7.842c1.613,0,3.291-0.323,4.324-0.807L59.825,200.859z"/>
				<path style="fill:#30302F;" d="M81.684,190.402c0,7.295-4.421,11.458-10.423,11.458c-6.133,0-10.006-4.681-10.006-11.068
					c0-6.684,4.195-11.396,10.327-11.396C77.94,179.396,81.684,184.206,81.684,190.402z M65.45,190.725
					c0,4.423,2.227,7.939,6.036,7.939c3.841,0,6.002-3.551,6.002-8.1c0-4.1-2.032-7.973-6.002-7.973
					C67.548,182.592,65.45,186.24,65.45,190.725z"/>
				<path style="fill:#30302F;" d="M103.481,192.63c-0.129-2.81-0.291-6.196-0.259-9.135h-0.096
					c-0.711,2.646-1.614,5.585-2.582,8.328l-3.163,9.424h-3.066l-2.904-9.295c-0.84-2.775-1.615-5.745-2.195-8.457h-0.064
					c-0.096,2.841-0.227,6.294-0.388,9.264l-0.483,8.746h-3.712l1.453-21.754h5.229l2.839,8.748c0.775,2.549,1.453,5.13,2.002,7.55
					h0.097c0.581-2.354,1.323-5.032,2.163-7.584l3.001-8.714h5.164l1.259,21.754H103.9L103.481,192.63z"/>
				<path style="fill:#30302F;" d="M111.823,180.042c1.421-0.257,3.389-0.452,6.068-0.452c2.904,0,5.034,0.613,6.423,1.777
					c1.29,1.063,2.13,2.774,2.13,4.806c0,2.065-0.646,3.776-1.873,4.938c-1.58,1.582-4.066,2.325-6.874,2.325
					c-0.742,0-1.419-0.034-1.936-0.128v8.196h-3.938V180.042z M115.762,190.176c0.483,0.129,1.129,0.163,1.936,0.163
					c2.97,0,4.777-1.454,4.777-4.003c0-2.42-1.679-3.713-4.423-3.713c-1.097,0-1.871,0.097-2.29,0.194V190.176z"/>
				<path style="fill:#30302F;" d="M131.938,195.34l-1.872,6.165h-4.099l6.971-21.754h5.068l7.067,21.754h-4.26l-1.97-6.165H131.938
					z M138.166,192.338l-1.709-5.357c-0.421-1.322-0.775-2.807-1.098-4.066h-0.065c-0.322,1.26-0.646,2.775-1.033,4.066
					l-1.678,5.357H138.166z"/>
				<path style="fill:#30302F;" d="M148.118,201.505v-21.754h4.519l5.616,9.329c1.451,2.42,2.71,4.938,3.71,7.292h0.064
					c-0.257-2.903-0.354-5.713-0.354-9.034v-7.587h3.679v21.754h-4.098l-5.681-9.553c-1.388-2.389-2.841-5.066-3.905-7.521
					l-0.097,0.032c0.161,2.809,0.194,5.682,0.194,9.263v7.779H148.118z"/>
				<path style="fill:#30302F;" d="M174.467,201.505v-9.069l-6.874-12.685h4.519l2.614,5.584c0.741,1.613,1.291,2.841,1.871,4.325
					h0.064c0.55-1.388,1.163-2.743,1.904-4.325l2.614-5.584h4.486l-7.229,12.587v9.167H174.467z"/>
			</g>
		</g>
		<g style="display:inline;">
			<ellipse style="fill:#F6BD46;" cx="114.386" cy="165.04" rx="12.175" ry="6.993"/>
			<path style="fill:#ADBACA;" d="M126.116,166.671h-23.927c-2.919,0-5.285-2.366-5.285-5.286v-14.526h34.497v14.526
				C131.401,164.305,129.035,166.671,126.116,166.671z"/>
			<path style="fill:#F6BD46;" d="M114.386,57.103c-21.008,0-38.039,15.979-38.039,35.688c0,6.919,2.101,13.375,5.734,18.843
				c5.338,8.033,9.132,17.062,10.938,26.575c0.388,2.041,0.684,5.147,0.884,7.767c0.209,2.74,2.365,4.846,4.946,4.846h30.945
				c2.593,0,4.741-2.126,4.942-4.878c0.213-2.909,0.613-5.787,1.189-8.62c1.87-9.189,5.592-17.906,10.765-25.689
				c3.634-5.468,5.733-11.924,5.733-18.843C152.425,73.082,135.395,57.103,114.386,57.103z"/>
			<polygon style="fill:#8D99A9;" points="131.401,152.054 96.904,158.137 96.904,161.476 131.401,155.393 			"/>
			<circle style="fill:#FFFFFF;" cx="90.921" cy="77.475" r="4.041"/>
			<path style="fill:#F7B23D;" d="M129.795,150.822c2.593,0,4.741-2.126,4.942-4.878c0.213-2.909,0.613-5.787,1.189-8.62
				c1.87-9.188,5.592-17.906,10.765-25.689c3.634-5.468,5.733-11.924,5.733-18.843c0-19.71-17.03-35.688-38.039-35.688v93.719
				H129.795z"/>
		</g>
	</g>
</g>
<g id="Layer_4" style="display:none;">
	<g style="display:inline;">
		<g>
			<path style="fill:#2487C6;" d="M98.455,120.936l-0.395-5.133c-0.987-10.266,2.566-21.124,11.845-32.376
				c7.502-8.885,12.438-15.794,12.438-23.493c0-8.292-5.133-13.819-16.188-14.017c-6.91,0-14.807,2.172-19.742,5.923L80.49,34.468
				c7.106-4.542,18.557-8.095,30.994-8.095c24.48,0,35.732,14.214,35.732,30.007c0,14.214-8.686,24.085-17.175,33.759
				c-7.699,9.081-10.858,17.175-10.463,26.651l0.197,4.146H98.455z M93.519,148.376c0-9.08,6.317-15.398,15.004-15.398
				c8.884,0,14.807,6.318,15.004,15.398c0,8.688-5.923,15.398-15.004,15.398C99.639,163.775,93.519,157.064,93.519,148.376z"/>
		</g>
		<g>
			<path style="fill:#30302F;" d="M72.36,198.598c-0.938,0.487-3.007,0.971-5.624,0.971c-6.917,0-11.118-4.331-11.118-10.958
				c0-7.174,4.978-11.505,11.636-11.505c2.617,0,4.492,0.55,5.3,0.971l-0.872,3.166c-1.034-0.452-2.457-0.84-4.267-0.84
				c-4.429,0-7.627,2.779-7.627,8.017c0,4.781,2.812,7.853,7.595,7.853c1.615,0,3.296-0.324,4.33-0.808L72.36,198.598z"/>
			<path style="fill:#30302F;" d="M79.739,177.46v8.727h9.211v-8.727h3.977v21.785H88.95v-9.601h-9.211v9.601h-3.976V177.46H79.739z
				"/>
			<path style="fill:#30302F;" d="M101.858,193.072l-1.875,6.174h-4.104l6.98-21.785h5.075l7.078,21.785h-4.267l-1.972-6.174
				H101.858z M108.094,190.066l-1.712-5.365c-0.421-1.324-0.776-2.811-1.099-4.071h-0.065c-0.322,1.261-0.646,2.779-1.034,4.071
				l-1.681,5.365H108.094z"/>
			<path style="fill:#30302F;" d="M118.06,199.246V177.46h4.525l5.624,9.343c1.454,2.424,2.715,4.944,3.716,7.303h0.064
				c-0.258-2.908-0.355-5.719-0.355-9.048v-7.598h3.685v21.785h-4.104l-5.688-9.566c-1.39-2.392-2.846-5.073-3.911-7.531
				l-0.097,0.034c0.161,2.811,0.194,5.687,0.194,9.273v7.79H118.06z"/>
			<path style="fill:#30302F;" d="M155.531,198.598c-0.938,0.487-3.007,0.971-5.624,0.971c-6.917,0-11.118-4.331-11.118-10.958
				c0-7.174,4.978-11.505,11.636-11.505c2.617,0,4.492,0.55,5.3,0.971l-0.872,3.166c-1.034-0.452-2.457-0.84-4.266-0.84
				c-4.428,0-7.628,2.779-7.628,8.017c0,4.781,2.812,7.853,7.595,7.853c1.616,0,3.296-0.324,4.33-0.808L155.531,198.598z"/>
			<path style="fill:#30302F;" d="M171.12,189.583h-8.21v6.399h9.18v3.264h-13.154V177.46h12.669v3.267h-8.694v5.624h8.21V189.583z"
				/>
		</g>
	</g>
</g>
<g id="Layer_2" style="display:none;">
	<g style="display:inline;">
		<g>
			<path style="fill:#F6BD46;" d="M102.564,132.615c-17.082-14.733-19.529-45.714-19.878-53.782
				c7.801-5.153,12.955-13.989,12.955-24.039c0-15.906-12.895-28.801-28.801-28.801S38.039,38.889,38.039,54.795
				c0,10.049,5.154,18.886,12.955,24.039c-0.35,8.068-2.796,39.048-19.878,53.782c-3.626,3.128-5.851,7.573-5.851,12.362v3.249
				H66.84h41.575v-3.249C108.415,140.188,106.19,135.743,102.564,132.615z"/>
			<path style="fill:#F7B23D;" d="M108.415,148.227v-3.249c0-4.789-2.224-9.234-5.851-12.362
				c-17.082-14.733-19.529-45.714-19.878-53.782c7.801-5.153,12.955-13.989,12.955-24.039c0-15.906-12.895-28.801-28.801-28.801
				v122.232H108.415z"/>
		</g>
		<g>
			<path style="fill:#D53F32;" d="M196.847,132.615c-17.082-14.733-19.528-45.714-19.878-53.782
				c7.801-5.153,12.955-13.989,12.955-24.039c0-15.906-12.895-28.801-28.801-28.801s-28.801,12.895-28.801,28.801
				c0,10.049,5.154,18.886,12.955,24.039c-0.349,8.068-2.796,39.048-19.878,53.782c-3.626,3.128-5.851,7.573-5.851,12.362v3.249
				h41.575h41.575v-3.249C202.698,140.188,200.474,135.743,196.847,132.615z"/>
			<path style="fill:#C52F2D;" d="M202.698,148.227v-3.249c0-4.789-2.224-9.234-5.851-12.362
				c-17.082-14.733-19.528-45.714-19.878-53.782c7.801-5.153,12.955-13.989,12.955-24.039c0-15.906-12.895-28.801-28.801-28.801
				v122.232H202.698z"/>
		</g>
		<g>
			<path style="fill:#2487C6;" d="M152.346,183.579c-17.082-14.733-19.528-45.713-19.878-53.782
				c7.801-5.152,12.955-13.989,12.955-24.038c0-15.906-12.895-28.801-28.801-28.801c-15.906,0-28.801,12.895-28.801,28.801
				c0,10.049,5.154,18.886,12.955,24.038c-0.35,8.069-2.796,39.049-19.878,53.782c-3.626,3.128-5.851,7.572-5.851,12.361v3.25
				h41.575h41.575v-3.25C158.197,191.151,155.973,186.707,152.346,183.579z"/>
			<path style="fill:#1C78BB;" d="M158.197,199.19v-3.25c0-4.789-2.224-9.233-5.851-12.361
				c-17.082-14.733-19.528-45.713-19.878-53.782c7.801-5.152,12.955-13.989,12.955-24.038c0-15.906-12.895-28.801-28.801-28.801
				V199.19H158.197z"/>
		</g>
	</g>
</g>
</svg>
